<?xml version="1.0" standalone="no"?>
<!DOCTYPE svg PUBLIC "-//W3C//DTD SVG 20010904//EN"
 "http://www.w3.org/TR/2001/REC-SVG-20010904/DTD/svg10.dtd">
<svg version="1.0" xmlns="http://www.w3.org/2000/svg"
 width="626.000000pt" height="626.000000pt" viewBox="0 0 626.000000 626.000000"
 preserveAspectRatio="xMidYMid meet">

<g transform="translate(0.000000,626.000000) scale(0.100000,-0.100000)"
fill="#000000" stroke="none">
<path d="M2960 5640 l0 -40 -100 0 -100 0 0 -395 0 -395 215 0 215 0 0 369 c0
269 3 372 12 377 6 4 8 3 5 -3 -4 -6 5 -42 19 -79 14 -38 31 -83 36 -101 6
-18 14 -30 18 -28 4 3 8 -1 7 -8 -1 -34 4 -48 15 -41 7 4 8 3 4 -5 -9 -14 114
-342 126 -335 4 3 5 -1 2 -9 -6 -18 41 -127 55 -127 6 0 11 5 11 11 0 5 -4 7
-10 4 -5 -3 -10 -1 -10 4 0 15 27 14 32 -1 3 -8 23 -4 65 13 34 13 59 27 57
31 -3 4 2 5 10 2 9 -3 16 -3 16 1 0 3 -22 66 -49 138 -27 73 -79 213 -116 312
-37 98 -74 185 -84 193 -9 7 -10 11 -3 7 8 -4 5 11 -8 45 -11 28 -20 53 -20
55 0 3 -37 -9 -82 -26 -128 -48 -118 -50 -118 15 l0 56 -110 0 -110 0 0 -40z
m-140 -61 l25 -9 -27 4 c-19 2 -28 -2 -30 -13 -3 -12 -6 -10 -10 7 -7 24 1 26
42 11z m506 2 c-3 -5 -15 -7 -26 -4 -28 7 -25 13 6 13 14 0 23 -4 20 -9z
m-428 -8 c-10 -2 -26 -2 -35 0 -10 3 -2 5 17 5 19 0 27 -2 18 -5z m383 -11
c-13 -2 -27 0 -32 5 -6 6 3 7 23 4 28 -4 29 -6 9 -9z m-146 -22 c0 -24 -2 -25
-75 -25 -75 0 -75 0 -78 28 l-3 28 78 -3 c76 -3 78 -4 78 -28z m257 8 c-5 -8
-6 -22 -1 -33 4 -11 8 -23 8 -27 2 -13 -130 -51 -141 -40 -21 21 -2 45 49 65
29 11 50 23 47 28 -3 5 2 6 10 3 9 -3 16 -1 16 5 0 6 5 11 11 11 8 0 8 -4 1
-12z m-122 -8 c0 -5 -2 -10 -4 -10 -3 0 -8 5 -11 10 -3 6 -1 10 4 10 6 0 11
-4 11 -10z m-404 -30 l74 0 0 -30 0 -30 -85 0 c-93 0 -96 3 -78 70 6 19 8 21
11 8 3 -15 15 -18 78 -18z m48 18 c-2 -3 -13 -6 -24 -5 -24 2 -18 13 9 13 11
0 18 -4 15 -8z m335 -24 c-14 -17 -16 -17 -24 -4 -4 6 -3 10 2 9 22 -4 25 2 7
17 -18 14 -18 15 4 4 19 -9 21 -14 11 -26z m58 20 c-3 -3 -12 -4 -19 -1 -8 3
-5 6 6 6 11 1 17 -2 13 -5z m113 -34 c6 -11 8 -20 6 -20 -3 0 -10 9 -16 20 -6
11 -8 20 -6 20 3 0 10 -9 16 -20z m-285 -20 c0 -24 -2 -25 -75 -25 -65 0 -75
2 -78 19 -6 27 9 32 85 31 65 -1 68 -2 68 -25z m283 -24 c10 -23 9 -26 -26
-36 -20 -7 -52 -21 -69 -31 -18 -10 -33 -14 -33 -8 0 6 -5 7 -12 3 -8 -5 -9
-2 -5 11 4 10 2 22 -5 29 -7 6 -12 10 -10 9 2 0 34 9 70 22 84 29 77 29 90 1z
m-478 -36 l0 -30 -85 0 c-82 0 -85 1 -85 23 0 13 3 27 7 30 3 4 42 7 85 7 l78
0 0 -30z m519 -12 c6 -18 7 -28 2 -23 -10 12 -25 55 -18 55 3 0 10 -15 16 -32z
m-31 0 c-3 -7 -16 -13 -31 -13 -14 -1 -23 3 -20 8 3 5 14 7 24 4 11 -3 19 -1
19 4 0 5 3 9 6 9 3 0 4 -6 2 -12z m-74 -62 c-3 -21 -8 -35 -11 -32 -2 2 -1 20
3 40 3 21 8 35 11 32 2 -2 1 -20 -3 -40z m-14 30 c0 -3 -4 -8 -10 -11 -5 -3
-10 -1 -10 4 0 6 5 11 10 11 6 0 10 -2 10 -4z m-513 -12 c-3 -3 -12 -4 -19 -1
-8 3 -5 6 6 6 11 1 17 -2 13 -5z m71 -1 c-10 -2 -26 -2 -35 0 -10 3 -2 5 17 5
19 0 27 -2 18 -5z m29 -15 c-3 -8 -6 -5 -6 6 -1 11 2 17 5 13 3 -3 4 -12 1
-19z m20 -25 c-3 -10 -5 -2 -5 17 0 19 2 27 5 18 2 -10 2 -26 0 -35z m524 28
c-4 -9 -7 -28 -6 -43 0 -16 -2 -28 -6 -28 -12 0 -18 44 -8 57 6 6 8 16 5 21
-3 5 1 9 9 9 9 0 11 -6 6 -16z m-151 -22 c0 -6 -4 -7 -10 -4 -5 3 -10 11 -10
16 0 6 5 7 10 4 6 -3 10 -11 10 -16z m184 -59 c10 -13 9 -13 -6 -1 -10 7 -17
23 -17 35 1 20 2 20 6 1 3 -11 10 -27 17 -35z m-607 -22 c-2 -13 -4 -3 -4 22
0 25 2 35 4 23 2 -13 2 -33 0 -45z m451 -20 c0 -29 -3 -37 -8 -24 -6 18 -2 66
6 66 1 0 2 -19 2 -42z m137 22 c3 -5 1 -10 -4 -10 -6 0 -11 5 -11 10 0 6 2 10
4 10 3 0 8 -4 11 -10z m-558 -82 c-2 -13 -4 -3 -4 22 0 25 2 35 4 23 2 -13 2
-33 0 -45z m20 0 c-2 -13 -4 -3 -4 22 0 25 2 35 4 23 2 -13 2 -33 0 -45z m-50
-140 c-2 -24 -4 -5 -4 42 0 47 2 66 4 43 2 -24 2 -62 0 -85z m541 101 c3 -12
2 -12 -6 0 -8 11 -10 11 -15 0 -4 -10 -6 -8 -6 4 -1 21 21 18 27 -4z m-38 -36
c0 -21 -3 -24 -9 -14 -5 8 -7 20 -4 28 8 21 13 15 13 -14z m176 -18 c-1 -28
-11 -33 -20 -10 -3 8 -1 15 5 15 6 0 7 5 4 10 -3 6 -2 10 3 10 6 0 9 -11 8
-25z m-45 -8 c-10 -9 -11 -8 -5 6 3 10 9 15 12 12 3 -3 0 -11 -7 -18z m-111
-27 c0 -5 -2 -10 -4 -10 -3 0 -8 5 -11 10 -3 6 -1 10 4 10 6 0 11 -4 11 -10z
m16 -24 c0 -14 -5 -21 -9 -17 -4 4 -5 15 -1 24 9 24 12 21 10 -7z m111 2 c-3
-8 -6 -5 -6 6 -1 11 2 17 5 13 3 -3 4 -12 1 -19z m67 -33 c-4 -8 -1 -15 5 -15
6 0 11 -4 11 -10 0 -5 -4 -10 -9 -10 -12 0 -23 29 -15 41 9 14 14 10 8 -6z
m-667 -77 c-2 -18 -4 -6 -4 27 0 33 2 48 4 33 2 -15 2 -42 0 -60z m540 -20
c-3 -8 -6 -5 -6 6 -1 11 2 17 5 13 3 -3 4 -12 1 -19z m98 2 c3 -5 1 -10 -4
-10 -6 0 -11 5 -11 10 0 6 2 10 4 10 3 0 8 -4 11 -10z m-28 -6 c-3 -3 -12 -4
-19 -1 -8 3 -5 6 6 6 11 1 17 -2 13 -5z m-660 -46 c-3 -8 -6 -5 -6 6 -1 11 2
17 5 13 3 -3 4 -12 1 -19z"/>
<path d="M1655 5632 c-37 -18 -104 -82 -132 -128 -11 -17 -12 -15 -13 16 0 19
-4 42 -9 49 -8 12 -12 10 -22 -12 -9 -21 -17 -26 -33 -22 -15 4 -11 -3 16 -28
39 -35 40 -47 4 -47 -37 0 -120 -46 -155 -85 -19 -22 -46 -64 -60 -95 -24 -50
-26 -66 -26 -187 0 -72 3 -134 7 -138 3 -4 23 -1 42 6 52 19 85 -8 111 -89 11
-34 23 -62 26 -62 3 0 14 52 24 116 19 115 19 115 53 129 55 24 93 56 108 92
l15 34 45 -40 c84 -74 254 -115 379 -92 35 6 71 14 80 17 10 4 15 0 15 -11 0
-15 7 -17 41 -12 75 10 114 79 74 131 -13 17 -12 22 10 48 28 34 32 66 10 107
-13 25 -31 36 -87 55 -14 4 -18 16 -18 53 0 53 -24 102 -63 128 -38 25 -114
28 -172 7 l-50 -18 -40 44 c-36 39 -46 45 -90 49 -35 2 -62 -2 -90 -15z"/>
<path d="M3950 5224 c0 -380 1 -416 16 -410 13 5 15 2 10 -16 -4 -13 -10 -53
-13 -90 -5 -58 -1 -82 32 -188 43 -139 43 -178 -2 -242 -73 -105 -83 -123 -83
-158 0 -37 28 -91 63 -122 12 -11 55 -35 95 -55 57 -28 96 -39 177 -49 98 -13
108 -12 169 7 l66 20 0 69 0 69 -63 -6 c-47 -4 -71 -2 -93 10 -49 25 -113 103
-149 180 -28 58 -83 239 -118 388 -11 43 25 75 148 134 62 30 133 70 157 88
l45 35 18 -60 c35 -116 96 -182 202 -215 53 -17 55 -18 51 -49 l-4 -31 27 20
c22 15 38 19 74 14 61 -6 99 -42 99 -91 0 -53 -50 -125 -107 -154 -54 -28 -52
-18 -33 -183 17 -137 33 -181 78 -209 51 -31 190 -72 234 -68 37 3 39 4 36 35
-5 51 23 95 120 184 103 94 128 136 128 219 0 108 -43 161 -181 223 -73 34
-131 84 -143 124 -3 10 -10 54 -16 98 -6 46 -21 102 -36 132 -31 63 -123 151
-198 188 -74 36 -181 52 -251 38 -42 -9 -63 -9 -101 3 -66 20 -150 17 -201 -6
l-43 -19 -1 177 c0 97 0 223 1 280 l1 102 -106 0 -105 0 0 -416z m190 296 l0
-30 -85 0 -85 0 0 30 0 30 85 0 85 0 0 -30z m-2 -74 l3 -26 -85 0 c-83 0 -86
1 -86 23 0 13 2 26 4 28 2 2 40 3 83 2 76 -1 78 -2 81 -27z"/>
<path d="M1654 4976 c-40 -18 -58 -42 -23 -33 13 4 42 10 64 13 63 9 72 13 55
24 -21 13 -60 12 -96 -4z"/>
<path d="M1967 4974 c-15 -15 -5 -23 38 -30 25 -3 48 -10 51 -15 8 -14 24 -10
24 6 0 8 -8 19 -18 24 -26 14 -86 23 -95 15z"/>
<path d="M1662 4860 c-16 -27 -15 -55 4 -74 22 -23 30 -20 44 14 23 55 -18
107 -48 60z"/>
<path d="M1992 4858 c-17 -17 -15 -63 3 -78 24 -20 47 6 43 49 -3 38 -24 51
-46 29z"/>
<path d="M4376 4581 c-4 -5 8 -12 25 -16 33 -7 45 -3 34 14 -8 13 -52 14 -59
2z"/>
<path d="M4115 4549 c-4 -6 -5 -12 -4 -14 7 -7 59 8 59 16 0 13 -47 11 -55 -2z"/>
<path d="M4739 4494 c-7 -8 -15 -40 -17 -71 -5 -53 -4 -55 16 -44 27 14 35 28
22 36 -7 4 -7 12 0 26 16 29 33 24 27 -8 -5 -26 -4 -26 9 -8 20 27 17 63 -5
75 -27 14 -36 13 -52 -6z"/>
<path d="M4403 4454 c-7 -20 9 -49 28 -49 22 0 18 59 -4 63 -9 2 -20 -4 -24
-14z"/>
<path d="M4144 4446 c-11 -29 0 -61 21 -61 29 0 33 50 5 65 -16 9 -21 8 -26
-4z"/>
<path d="M4257 4353 c-4 -20 -4 -40 -1 -44 6 -10 34 0 34 13 0 5 -5 6 -12 2
-8 -5 -9 2 -5 24 4 17 3 34 -2 36 -5 3 -11 -11 -14 -31z"/>
<path d="M3084 3613 c-21 -22 -16 -77 30 -307 19 -94 49 -245 66 -336 17 -91
33 -173 36 -182 4 -13 0 -18 -15 -18 -16 0 -21 -6 -21 -26 0 -14 5 -34 10 -45
10 -19 30 -19 791 -19 519 0 787 3 800 10 20 11 25 45 9 70 -8 13 -50 15 -299
12 l-289 -4 -12 59 c-6 32 -31 148 -56 259 -24 110 -57 270 -74 354 -18 90
-37 162 -47 172 -15 17 -46 18 -464 18 -407 0 -449 -2 -465 -17z"/>
<path d="M4917 3412 c-9 -2 -17 -8 -17 -13 0 -5 86 -9 205 -9 l205 0 0 -85 0
-85 199 0 c172 0 200 2 205 16 9 23 7 147 -3 162 -6 10 -90 13 -393 15 -211 1
-392 1 -401 -1z m733 -102 l0 -70 -40 0 -40 0 0 63 c0 35 3 67 7 70 3 4 21 7
40 7 l33 0 0 -70z"/>
<path d="M1715 3129 c-5 -7 74 -9 255 -7 l262 2 24 -27 c30 -35 34 -114 7
-145 -17 -20 -31 -21 -287 -26 -176 -4 -274 -10 -280 -17 -8 -8 92 -10 362 -7
l374 3 20 -25 c17 -21 19 -36 16 -92 -2 -37 -9 -73 -15 -79 -8 -8 -131 -10
-418 -10 -312 1 -406 -1 -403 -10 4 -11 418 -14 1101 -9 24 0 53 68 61 145 6
56 5 61 -14 62 -18 2 -20 -4 -20 -58 0 -73 -22 -132 -47 -127 -15 3 -18 17
-21 96 -2 84 -4 92 -22 92 -11 0 -20 7 -20 15 0 8 9 15 19 15 38 0 51 27 51
106 0 124 44 114 -519 114 -325 0 -482 -3 -486 -11z m843 -41 c2 -9 -7 -37
-19 -62 -17 -36 -26 -46 -46 -46 -21 0 -23 4 -18 23 4 12 9 31 12 42 15 56 63
86 71 43z"/>
<path d="M5110 3040 c58 -3 104 -8 103 -12 -2 -5 -3 -35 -3 -68 l0 -61 -211 2
c-173 1 -213 -1 -227 -14 -21 -18 -114 -41 -268 -67 l-119 -19 125 4 c69 3
162 6 208 6 45 1 83 5 83 10 7 48 12 49 160 49 l139 0 0 -85 0 -85 -142 0
c-114 0 -140 -3 -130 -12 14 -14 55 -15 625 -10 345 3 347 3 361 25 14 21 21
75 18 129 -2 29 -44 51 -81 41 -20 -5 -21 -1 -21 80 l0 85 -77 4 c-43 2 -206
4 -363 4 -157 0 -238 -3 -180 -6z m443 -37 c-40 -2 -107 -2 -150 0 -43 1 -10
3 72 3 83 0 118 -2 78 -3z m102 -43 c-3 -5 -11 -10 -16 -10 -6 0 -7 5 -4 10 3
6 11 10 16 10 6 0 7 -4 4 -10z m-378 -32 c-3 -7 -5 -2 -5 12 0 14 2 19 5 13 2
-7 2 -19 0 -25z m488 -94 c12 -13 15 -26 10 -58 -8 -48 -6 -44 -25 -46 -54 -8
-60 -2 -60 53 0 30 3 57 7 60 12 13 51 7 68 -9z"/>
<path d="M854 2405 c16 -167 69 -314 142 -395 l36 -40 -139 0 c-95 0 -143 -4
-151 -12 -9 -9 -12 46 -12 250 l0 262 -50 0 -50 0 0 -527 c0 -289 2 -524 3
-522 2 2 25 35 50 73 l47 68 0 127 c1 110 2 124 15 108 13 -18 39 -19 460 -20
l446 -1 -6 -25 c-4 -14 -35 -105 -69 -201 -71 -197 -133 -386 -167 -505 -12
-44 -30 -89 -39 -100 -10 -11 -20 -30 -22 -42 -5 -18 1 -23 36 -32 22 -6 101
-12 174 -14 145 -4 152 -1 152 55 0 13 32 82 71 153 100 183 238 469 294 608
43 104 50 117 72 117 31 0 65 18 58 31 -4 5 -1 8 7 7 10 -2 13 14 13 68 l0 72
60 5 c33 2 61 3 63 1 2 -1 -32 -110 -76 -241 -44 -131 -105 -328 -135 -438
-78 -279 -93 -335 -106 -374 -9 -29 -8 -34 9 -38 24 -6 28 -61 5 -69 -16 -7
-31 -48 -40 -115 l-7 -47 -51 13 c-29 7 -84 18 -123 24 -85 15 -124 37 -165
94 l-31 44 -56 -23 c-71 -29 -87 -29 -137 1 -22 14 -45 25 -50 25 -13 0 -76
-225 -75 -273 l0 -37 697 2 c662 3 698 4 701 21 5 27 -46 87 -93 108 -23 10
-68 21 -101 25 -32 4 -77 16 -99 26 -46 23 -143 119 -137 136 2 7 21 12 43 12
34 0 39 3 45 28 12 57 29 101 80 218 147 332 344 949 344 1073 0 62 -22 118
-65 169 -50 60 -70 64 -300 73 -343 14 -318 11 -325 37 l-5 22 -624 3 -623 2
6 -70z"/>
<path d="M4210 2470 c-39 -11 -428 -238 -491 -286 -61 -46 -83 -83 -98 -160
-5 -27 -12 -261 -16 -521 l-6 -471 41 -7 c22 -4 90 -5 150 -3 l109 3 6 40 c4
22 20 117 37 210 17 94 31 193 31 220 0 28 -15 124 -33 215 -60 291 -45 432
52 481 21 11 118 47 216 80 174 60 353 139 402 178 l25 21 -155 1 c-85 1 -175
3 -200 4 -25 2 -56 -1 -70 -5z"/>
<path d="M5550 1498 l0 -973 50 3 50 4 0 969 0 969 -50 0 -50 0 0 -972z"/>
<path d="M4805 1919 c-224 -49 -345 -69 -414 -69 -53 0 -53 0 -46 -27 3 -16
11 -32 16 -38 11 -11 935 -18 1021 -9 63 8 98 40 98 91 0 21 -6 45 -13 54 -27
35 -53 39 -269 38 -209 -1 -216 -1 -393 -40z"/>
<path d="M294 1553 c-8 -83 2 -230 21 -303 25 -96 84 -158 166 -174 17 -4 31
-16 39 -36 7 -17 15 -29 17 -27 2 3 -1 16 -8 30 -9 21 -8 28 9 45 12 12 26 39
33 60 15 52 -6 152 -53 249 -35 72 -131 178 -186 207 l-30 16 -8 -67z"/>
<path d="M657 1123 c-3 -5 -8 -34 -12 -65 l-7 -58 -67 -1 c-36 0 -90 -1 -118
-1 l-53 0 0 -54 c0 -46 3 -54 19 -54 19 0 21 -11 68 -322 l6 -38 183 0 c101 0
184 1 184 3 0 1 14 79 30 172 16 94 30 173 30 178 0 4 7 7 15 7 11 0 15 13 15
53 l0 53 -77 1 c-43 1 -109 2 -147 2 l-69 1 6 65 c6 61 4 75 -6 58z"/>
<path d="M3520 651 c-149 -84 -165 -95 -165 -111 0 -13 35 -15 245 -15 l245 0
-3 40 c-3 45 -18 104 -30 122 -6 10 -17 8 -47 -7 -52 -27 -81 -25 -111 5 -14
14 -26 25 -27 25 -1 0 -49 -27 -107 -59z"/>
<path d="M4089 670 c-35 -23 -89 -52 -119 -66 -82 -38 -85 -40 -85 -60 0 -18
13 -19 258 -22 l257 -2 0 30 c0 32 -47 160 -60 160 -4 0 -15 -9 -25 -20 -10
-11 -35 -25 -56 -32 -32 -9 -42 -8 -64 6 -14 9 -25 23 -25 31 0 22 -10 19 -81
-25z"/>
</g>
</svg>
